<?xml version="1.0" encoding="UTF-8"?>
<svg id="Layer_1" xmlns="http://www.w3.org/2000/svg" version="1.1" viewBox="0 0 759 119">
  <!-- Generator: Adobe Illustrator 30.2.1, SVG Export Plug-In . SVG Version: 2.1.1 Build 1)  -->
  <defs>
    <style>
      .st0 {
        stroke-width: 5.12px;
      }

      .st0, .st1 {
        fill: none;
        stroke: #000;
        stroke-miterlimit: 10;
      }

      .st1 {
        stroke-width: 5.06px;
      }
    </style>
  </defs>
  <g>
    <path d="M241.34,97.73c-.63,0-1.15-.51-1.15-1.15v-39.13c0-6.38-1.04-11.11-3.1-14.05-1.99-2.85-5.14-4.24-9.62-4.24-2.7,0-5.5.92-8.32,2.73-2.84,1.82-5.93,4.59-9.19,8.22v46.47c0,.63-.51,1.15-1.15,1.15h-5.7c-.63,0-1.15-.51-1.15-1.15v-39.13c0-6.38-1.06-11.1-3.16-14.04-2.04-2.86-5.21-4.25-9.69-4.25-5.09,0-10.98,3.68-17.51,10.95v46.47c0,.63-.51,1.15-1.15,1.15h-5.7c-.63,0-1.15-.51-1.15-1.15v-62.2c0-.63.51-1.15,1.15-1.15h4.92c.61,0,1.11.48,1.14,1.08l.39,7.26c2.45-2.56,5.14-4.75,8.03-6.55,3.58-2.22,7.25-3.35,10.91-3.35,5.35,0,9.51,1.25,12.35,3.72,2.35,2.04,4.14,4.7,5.36,7.92,3.16-3.35,6.34-6.07,9.47-8.08,3.67-2.36,7.43-3.55,11.18-3.55,6.56,0,11.57,2.13,14.89,6.33,3.26,4.12,4.91,10.4,4.91,18.66v39.91c0,.63-.51,1.15-1.15,1.15h-5.83.02Z"/>
    <path d="M228.51,32.83c6.22,0,10.88,1.97,13.99,5.9s4.66,9.91,4.66,17.95v39.91h-5.83v-39.13c0-6.65-1.1-11.55-3.3-14.71-2.2-3.15-5.72-4.73-10.56-4.73-2.94,0-5.92.97-8.94,2.92-3.03,1.94-6.26,4.86-9.72,8.75v46.91h-5.7v-39.13c0-6.65-1.12-11.55-3.37-14.71-2.25-3.15-5.79-4.73-10.62-4.73-5.53,0-11.75,3.89-18.66,11.66v46.91h-5.7v-62.2h4.92l.52,9.59h.39c2.76-3.2,5.85-5.85,9.26-7.97,3.41-2.12,6.85-3.17,10.3-3.17,5.1,0,8.96,1.15,11.6,3.43,2.63,2.29,4.51,5.38,5.64,9.26,3.54-3.97,7.06-7.08,10.56-9.33,3.5-2.24,7.02-3.37,10.56-3.37M228.51,30.54c-3.97,0-7.94,1.26-11.8,3.73-2.81,1.8-5.64,4.15-8.47,7-1.24-2.67-2.91-4.93-4.99-6.73-3.06-2.65-7.46-4-13.1-4-3.87,0-7.74,1.18-11.51,3.52-2.27,1.41-4.41,3.05-6.42,4.92l-.25-4.71c-.07-1.22-1.07-2.17-2.29-2.17h-4.92c-1.27,0-2.29,1.03-2.29,2.29v62.2c0,1.27,1.03,2.29,2.29,2.29h5.7c1.27,0,2.29-1.03,2.29-2.29v-46.03c6.19-6.8,11.69-10.25,16.37-10.25,4.09,0,6.95,1.23,8.76,3.77,1.95,2.74,2.94,7.24,2.94,13.38v39.13c0,1.27,1.03,2.29,2.29,2.29h5.7c1.27,0,2.29-1.03,2.29-2.29v-46.03c3.08-3.39,6-5.98,8.66-7.7,2.63-1.69,5.22-2.55,7.7-2.55,4.08,0,6.92,1.23,8.68,3.75,1.92,2.75,2.89,7.25,2.89,13.39v39.13c0,1.27,1.03,2.29,2.29,2.29h5.83c1.27,0,2.29-1.03,2.29-2.29v-39.91c0-8.52-1.74-15.04-5.16-19.37-3.55-4.49-8.87-6.77-15.79-6.77h.02Z"/>
  </g>
  <g>
    <path d="M287.86,99.29c-6.74,0-11.81-2.13-15.09-6.34-3.21-4.12-4.84-10.39-4.84-18.65v-39.91c0-.63.51-1.15,1.15-1.15h5.7c.63,0,1.15.51,1.15,1.15v39.13c0,6.3,1.06,11,3.16,13.98,2.04,2.9,5.25,4.31,9.82,4.31,3.46,0,6.65-.96,9.47-2.85,2.84-1.91,6.03-4.97,9.47-9.11v-45.46c0-.63.51-1.15,1.15-1.15h5.7c.63,0,1.15.51,1.15,1.15v62.2c0,.63-.51,1.15-1.15,1.15h-4.79c-.61,0-1.11-.47-1.14-1.07l-.49-7.9c-2.62,2.81-5.38,5.17-8.23,7.04-3.54,2.32-7.63,3.49-12.16,3.49h-.03Z"/>
    <path d="M314.68,34.39v62.2h-4.79l-.65-10.37h-.26c-3.03,3.54-6.22,6.41-9.59,8.62-3.37,2.2-7.21,3.3-11.53,3.3-6.39,0-11.12-1.96-14.19-5.9-3.07-3.93-4.6-9.91-4.6-17.95v-39.91h5.7v39.13c0,6.57,1.12,11.45,3.37,14.64,2.24,3.2,5.83,4.79,10.75,4.79,3.71,0,7.08-1.01,10.11-3.05,3.02-2.03,6.35-5.25,9.98-9.65v-45.87h5.7M314.68,32.1h-5.7c-1.27,0-2.29,1.03-2.29,2.29v45.04c-3.27,3.9-6.28,6.78-8.96,8.58-2.66,1.79-5.55,2.66-8.83,2.66-4.17,0-7.07-1.25-8.88-3.82-1.96-2.79-2.95-7.27-2.95-13.32v-39.13c0-1.27-1.03-2.29-2.29-2.29h-5.7c-1.27,0-2.29,1.03-2.29,2.29v39.91c0,8.52,1.71,15.03,5.09,19.36,3.5,4.5,8.89,6.78,15.99,6.78,4.75,0,9.05-1.24,12.79-3.68,2.27-1.49,4.49-3.28,6.62-5.35l.33,5.33c.08,1.21,1.08,2.15,2.29,2.15h4.79c1.27,0,2.29-1.03,2.29-2.29v-62.2c0-1.27-1.03-2.29-2.29-2.29h0v-.02Z"/>
  </g>
  <g>
    <path d="M355.49,98.77c-6.44,0-10.91-1.92-13.28-5.72-2.27-3.62-3.41-8.36-3.41-14.08v-38.5h-8.57c-.63,0-1.15-.51-1.15-1.15v-4.41c0-.61.48-1.11,1.08-1.14l8.8-.46.74-19.56c.02-.62.53-1.1,1.15-1.1h4.92c.63,0,1.15.51,1.15,1.15v19.46h16.86c.63,0,1.15.51,1.15,1.15v4.92c0,.63-.51,1.15-1.15,1.15h-16.86v38.89c0,3.76.65,6.82,1.93,9.09,1.17,2.09,3.6,3.11,7.42,3.11,1.12,0,2.27-.14,3.42-.42,1.17-.28,2.47-.76,3.86-1.41.15-.07.32-.11.49-.11.13,0,.27.02.4.07.29.11.52.32.65.6l1.81,4.02c.25.55.03,1.2-.51,1.49-1.7.89-3.51,1.62-5.4,2.16-1.91.54-3.76.82-5.5.82v-.02Z"/>
    <path d="M345.78,13.79v20.6h18.01v4.92h-18.01v40.04c0,3.97.69,7.19,2.07,9.65s4.19,3.69,8.42,3.69c1.21,0,2.44-.15,3.69-.45s2.61-.8,4.08-1.49l1.81,4.02c-1.64.87-3.37,1.55-5.18,2.07s-3.54.78-5.18.78c-6.05,0-10.15-1.73-12.31-5.18s-3.24-7.95-3.24-13.48v-39.65h-9.72v-4.41l9.85-.52.78-20.6h4.92M345.78,11.5h-4.92c-1.23,0-2.24.97-2.29,2.21l-.7,18.51-7.76.41c-1.22.06-2.17,1.07-2.17,2.29v4.41c0,1.27,1.03,2.29,2.29,2.29h7.43v37.36c0,5.94,1.21,10.88,3.59,14.69,2.59,4.15,7.39,6.26,14.25,6.26,1.85,0,3.8-.29,5.81-.86,1.97-.56,3.86-1.32,5.62-2.25,1.07-.56,1.52-1.87,1.02-2.97l-1.81-4.02c-.25-.56-.72-.99-1.3-1.21-.26-.09-.52-.14-.79-.14-.33,0-.67.07-.98.22-1.32.62-2.55,1.07-3.64,1.33-1.07.26-2.13.39-3.16.39-5.01,0-6.07-1.9-6.42-2.52-1.18-2.1-1.78-4.97-1.78-8.53v-37.75h15.72c1.27,0,2.29-1.03,2.29-2.29v-4.92c0-1.27-1.03-2.29-2.29-2.29h-15.72V13.81c0-1.27-1.03-2.29-2.29-2.29h0v-.02Z"/>
  </g>
  <g>
    <path d="M400.2,99.29c-5.11,0-9.95-1.34-14.39-3.98-4.44-2.65-8.03-6.55-10.67-11.6-2.62-5.02-3.95-11.11-3.95-18.09s1.33-13.21,3.95-18.28c2.63-5.09,6.22-9.02,10.67-11.67,4.44-2.64,9.28-3.98,14.39-3.98s10.06,1.34,14.46,3.99,7.98,6.57,10.66,11.66c2.67,5.07,4.02,11.22,4.02,18.29s-1.35,13.07-4.02,18.1c-2.68,5.04-6.26,8.94-10.66,11.59-4.39,2.65-9.26,3.99-14.46,3.99v-.02ZM400.2,39.03c-3.88,0-7.41,1.11-10.48,3.29-3.1,2.2-5.61,5.34-7.46,9.33-1.86,4.02-2.81,8.71-2.81,13.96s.94,9.93,2.81,13.9c1.85,3.94,4.36,7.04,7.46,9.2,3.07,2.14,6.6,3.23,10.49,3.23s7.57-1.09,10.69-3.23c3.14-2.16,5.64-5.25,7.45-9.19,1.82-3.98,2.75-8.66,2.75-13.91s-.93-9.95-2.75-13.97c-1.81-3.98-4.31-7.12-7.45-9.32-3.11-2.18-6.71-3.29-10.68-3.29h-.02Z"/>
    <path d="M400.2,32.83c5.01,0,9.63,1.28,13.86,3.82,4.23,2.55,7.64,6.28,10.24,11.21,2.59,4.92,3.89,10.84,3.89,17.75s-1.29,12.68-3.89,17.56c-2.59,4.88-6.01,8.6-10.24,11.14-4.23,2.55-8.86,3.82-13.86,3.82s-9.52-1.27-13.8-3.82c-4.28-2.55-7.69-6.26-10.24-11.14s-3.82-10.73-3.82-17.56,1.27-12.83,3.82-17.75,5.96-8.66,10.24-11.21c4.28-2.55,8.88-3.82,13.8-3.82M400.2,93.09c4.23,0,8.01-1.14,11.34-3.43,3.32-2.29,5.94-5.51,7.84-9.65,1.9-4.15,2.85-8.94,2.85-14.38s-.95-10.26-2.85-14.45c-1.9-4.19-4.51-7.45-7.84-9.78s-7.11-3.5-11.34-3.5-7.86,1.17-11.14,3.5-5.9,5.59-7.84,9.78-2.92,9-2.92,14.45.97,10.24,2.92,14.38c1.94,4.15,4.55,7.36,7.84,9.65,3.28,2.29,7,3.43,11.14,3.43M400.2,30.54c-5.32,0-10.35,1.39-14.97,4.15-4.63,2.76-8.37,6.84-11.1,12.12-2.71,5.23-4.08,11.56-4.08,18.8s1.37,13.43,4.08,18.62c2.73,5.24,6.47,9.29,11.1,12.05,4.62,2.75,9.65,4.14,14.97,4.14s10.47-1.4,15.05-4.15c4.57-2.75,8.3-6.8,11.08-12.03,2.76-5.19,4.15-11.46,4.15-18.63s-1.4-13.59-4.15-18.82c-2.78-5.27-6.5-9.35-11.08-12.1-4.58-2.76-9.64-4.15-15.05-4.15h0ZM400.2,90.8c-3.7,0-6.92-.99-9.83-3.02-2.93-2.04-5.31-4.99-7.07-8.75-1.79-3.82-2.7-8.33-2.7-13.41s.91-9.62,2.7-13.48c1.77-3.81,4.15-6.79,7.09-8.88,2.91-2.07,6.12-3.08,9.82-3.08s7.06,1.01,10.02,3.08c2.97,2.08,5.35,5.06,7.07,8.85,1.76,3.87,2.65,8.42,2.65,13.5s-.89,9.6-2.64,13.43c-1.72,3.74-4.09,6.68-7.05,8.72-2.96,2.04-6.25,3.03-10.04,3.03h-.02Z"/>
  </g>
  <g>
    <path d="M525.56,97.73c-.63,0-1.15-.51-1.15-1.15v-39.13c0-6.38-1.04-11.11-3.1-14.05-1.99-2.85-5.14-4.24-9.62-4.24-2.7,0-5.5.92-8.32,2.73-2.84,1.82-5.93,4.59-9.19,8.22v46.47c0,.63-.51,1.15-1.15,1.15h-5.7c-.63,0-1.15-.51-1.15-1.15v-39.13c0-6.38-1.06-11.1-3.16-14.04-2.04-2.86-5.21-4.25-9.69-4.25-5.09,0-10.98,3.68-17.51,10.95v46.47c0,.63-.51,1.15-1.15,1.15h-5.7c-.63,0-1.15-.51-1.15-1.15v-62.2c0-.63.51-1.15,1.15-1.15h4.92c.61,0,1.11.48,1.14,1.08l.39,7.25c2.44-2.56,5.14-4.75,8.03-6.55,3.58-2.22,7.25-3.35,10.91-3.35,5.35,0,9.51,1.25,12.35,3.71,2.35,2.04,4.14,4.7,5.36,7.92,3.16-3.36,6.34-6.07,9.47-8.08,3.67-2.36,7.43-3.55,11.18-3.55,6.56,0,11.57,2.13,14.89,6.33,3.26,4.12,4.91,10.4,4.91,18.66v39.91c0,.63-.51,1.15-1.15,1.15h-5.83l.02.02Z"/>
    <path d="M512.73,32.83c6.22,0,10.88,1.97,13.99,5.9s4.66,9.91,4.66,17.95v39.91h-5.83v-39.13c0-6.65-1.1-11.55-3.3-14.71-2.2-3.15-5.72-4.73-10.56-4.73-2.94,0-5.92.97-8.94,2.92-3.03,1.94-6.26,4.86-9.72,8.75v46.91h-5.7v-39.13c0-6.65-1.12-11.55-3.37-14.71-2.25-3.15-5.79-4.73-10.63-4.73-5.53,0-11.75,3.89-18.66,11.66v46.91h-5.7v-62.2h4.92l.52,9.59h.39c2.76-3.2,5.85-5.85,9.26-7.97,3.41-2.12,6.85-3.17,10.3-3.17,5.1,0,8.96,1.15,11.6,3.43,2.63,2.29,4.51,5.38,5.64,9.26,3.54-3.97,7.06-7.08,10.56-9.33,3.5-2.24,7.02-3.37,10.56-3.37M512.73,30.54c-3.97,0-7.94,1.26-11.8,3.73-2.81,1.8-5.64,4.15-8.47,7-1.24-2.67-2.91-4.93-4.99-6.73-3.06-2.65-7.46-4-13.1-4-3.87,0-7.74,1.18-11.51,3.52-2.27,1.41-4.41,3.05-6.42,4.92l-.25-4.71c-.07-1.22-1.07-2.17-2.29-2.17h-4.92c-1.27,0-2.29,1.03-2.29,2.29v62.2c0,1.27,1.03,2.29,2.29,2.29h5.7c1.27,0,2.29-1.03,2.29-2.29v-46.03c6.19-6.8,11.69-10.25,16.37-10.25,4.09,0,6.95,1.23,8.76,3.77,1.95,2.74,2.94,7.24,2.94,13.38v39.13c0,1.27,1.03,2.29,2.29,2.29h5.7c1.27,0,2.29-1.03,2.29-2.29v-46.03c3.08-3.39,6-5.98,8.66-7.7,2.63-1.69,5.22-2.55,7.7-2.55,4.08,0,6.92,1.23,8.68,3.75,1.92,2.75,2.89,7.25,2.89,13.39v39.13c0,1.27,1.03,2.29,2.29,2.29h5.83c1.27,0,2.29-1.03,2.29-2.29v-39.91c0-8.52-1.74-15.04-5.16-19.37-3.55-4.49-8.87-6.77-15.79-6.77h.02Z"/>
  </g>
  <g>
    <path d="M576.87,99.29c-5.11,0-9.95-1.34-14.39-3.98-4.44-2.65-8.03-6.55-10.67-11.6-2.62-5.02-3.95-11.11-3.95-18.09s1.33-13.21,3.95-18.28c2.63-5.09,6.22-9.02,10.67-11.67,4.44-2.64,9.28-3.98,14.39-3.98s10.06,1.34,14.46,3.99c4.4,2.65,7.98,6.57,10.66,11.66,2.67,5.07,4.02,11.22,4.02,18.29s-1.35,13.07-4.02,18.1c-2.68,5.04-6.26,8.94-10.66,11.59s-9.26,3.99-14.46,3.99v-.02ZM576.87,39.03c-3.88,0-7.41,1.11-10.48,3.29-3.1,2.2-5.61,5.34-7.46,9.33-1.86,4.02-2.81,8.71-2.81,13.96s.94,9.93,2.81,13.9c1.85,3.94,4.36,7.04,7.46,9.2,3.07,2.14,6.6,3.23,10.49,3.23s7.57-1.09,10.69-3.23c3.14-2.16,5.64-5.25,7.45-9.19,1.82-3.98,2.75-8.66,2.75-13.91s-.93-9.95-2.75-13.97c-1.81-3.98-4.31-7.12-7.45-9.32-3.11-2.18-6.71-3.29-10.68-3.29h-.02Z"/>
    <path d="M576.87,32.83c5.01,0,9.63,1.28,13.86,3.82,4.23,2.55,7.64,6.28,10.24,11.21,2.59,4.92,3.89,10.84,3.89,17.75s-1.29,12.68-3.89,17.56c-2.59,4.88-6.01,8.6-10.24,11.14-4.23,2.55-8.86,3.82-13.86,3.82s-9.52-1.27-13.8-3.82-7.69-6.26-10.24-11.14-3.82-10.73-3.82-17.56,1.27-12.83,3.82-17.75c2.55-4.92,5.96-8.66,10.24-11.21s8.88-3.82,13.8-3.82M576.87,93.09c4.23,0,8.01-1.14,11.34-3.43,3.32-2.29,5.94-5.51,7.84-9.65,1.9-4.15,2.85-8.94,2.85-14.38s-.95-10.26-2.85-14.45-4.51-7.45-7.84-9.78-7.11-3.5-11.34-3.5-7.86,1.17-11.14,3.5-5.9,5.59-7.84,9.78-2.92,9-2.92,14.45.97,10.24,2.92,14.38c1.94,4.15,4.55,7.36,7.84,9.65,3.28,2.29,7,3.43,11.14,3.43M576.87,30.54c-5.32,0-10.35,1.39-14.97,4.15-4.63,2.76-8.37,6.84-11.1,12.12-2.71,5.23-4.08,11.56-4.08,18.8s1.37,13.43,4.08,18.62c2.73,5.24,6.47,9.29,11.1,12.05,4.62,2.75,9.65,4.14,14.97,4.14s10.47-1.4,15.05-4.15c4.57-2.75,8.3-6.8,11.08-12.03,2.76-5.19,4.15-11.46,4.15-18.63s-1.4-13.59-4.15-18.82c-2.78-5.27-6.5-9.35-11.08-12.1-4.58-2.76-9.64-4.15-15.05-4.15h0ZM576.87,90.8c-3.7,0-6.92-.99-9.83-3.02-2.93-2.04-5.31-4.99-7.07-8.75-1.79-3.82-2.7-8.33-2.7-13.41s.91-9.62,2.7-13.48c1.77-3.81,4.15-6.79,7.09-8.88,2.91-2.07,6.12-3.08,9.82-3.08s7.06,1.01,10.02,3.08c2.97,2.08,5.35,5.06,7.07,8.85,1.76,3.87,2.65,8.42,2.65,13.5s-.89,9.6-2.64,13.43c-1.72,3.74-4.09,6.68-7.05,8.72-2.96,2.04-6.25,3.03-10.04,3.03h-.02Z"/>
  </g>
  <g>
    <path d="M623.52,97.73c-.63,0-1.15-.51-1.15-1.15v-62.2c0-.63.51-1.15,1.15-1.15h4.92c.61,0,1.12.48,1.14,1.09l.37,8.26c1.74-2.71,3.79-5.04,6.11-6.95,3.17-2.62,6.84-3.96,10.9-3.96,1.18,0,2.32.09,3.37.28,1.11.2,2.24.58,3.36,1.14.5.25.75.83.58,1.37l-1.56,4.92c-.15.49-.61.8-1.09.8-.11,0-.22-.02-.33-.05-.82-.24-1.58-.43-2.27-.55-.66-.12-1.62-.18-2.84-.18-2.49,0-5.2,1.12-8.04,3.32-2.86,2.22-5.48,6.15-7.78,11.7v42.14c0,.63-.51,1.15-1.15,1.15h-5.7v.02Z"/>
    <path d="M646.97,32.83c1.12,0,2.18.09,3.18.26.99.17,2.01.52,3.05,1.04l-1.56,4.92c-.86-.26-1.66-.45-2.4-.58-.74-.13-1.75-.19-3.05-.19-2.77,0-5.68,1.19-8.75,3.56-3.07,2.38-5.81,6.5-8.23,12.37v42.37h-5.7v-62.2h4.92l.52,11.53h.39c1.99-3.8,4.47-6.93,7.45-9.39,2.98-2.46,6.37-3.69,10.17-3.69M646.97,30.54c-4.33,0-8.24,1.42-11.63,4.22-1.59,1.31-3.05,2.81-4.39,4.48l-.22-4.95c-.06-1.22-1.06-2.19-2.29-2.19h-4.92c-1.27,0-2.29,1.03-2.29,2.29v62.2c0,1.27,1.03,2.29,2.29,2.29h5.7c1.27,0,2.29-1.03,2.29-2.29v-41.91c2.21-5.25,4.68-8.95,7.34-11.02,2.64-2.05,5.11-3.08,7.34-3.08,1.44,0,2.23.09,2.65.16.65.12,1.37.29,2.13.52.22.07.44.1.66.1.97,0,1.88-.63,2.18-1.6l1.56-4.92c.34-1.07-.15-2.24-1.16-2.74-1.22-.61-2.46-1.03-3.67-1.24-1.13-.2-2.33-.29-3.57-.29h0v-.03Z"/>
  </g>
  <g>
    <path d="M664.59,97.73c-.63,0-1.15-.51-1.15-1.15v-62.2c0-.63.51-1.15,1.15-1.15h4.92c.61,0,1.12.48,1.14,1.09l.37,8.26c1.74-2.71,3.79-5.04,6.11-6.95,3.17-2.62,6.84-3.96,10.9-3.96,1.18,0,2.32.09,3.37.28,1.11.2,2.24.58,3.36,1.14.5.25.75.83.58,1.37l-1.56,4.92c-.15.49-.61.8-1.09.8-.11,0-.22-.02-.33-.05-.82-.24-1.58-.43-2.27-.55-.66-.12-1.62-.18-2.84-.18-2.49,0-5.2,1.12-8.04,3.32-2.86,2.22-5.48,6.15-7.78,11.7v42.14c0,.63-.51,1.15-1.15,1.15h-5.7v.02Z"/>
    <path d="M688.04,32.83c1.12,0,2.18.09,3.17.26s2.01.52,3.05,1.04l-1.56,4.92c-.86-.26-1.66-.45-2.4-.58-.74-.13-1.75-.19-3.05-.19-2.77,0-5.68,1.19-8.75,3.56-3.07,2.38-5.81,6.5-8.23,12.37v42.37h-5.7v-62.2h4.92l.52,11.53h.39c1.99-3.8,4.47-6.93,7.45-9.39,2.98-2.46,6.37-3.69,10.17-3.69M688.04,30.54c-4.33,0-8.24,1.42-11.63,4.22-1.59,1.31-3.05,2.81-4.39,4.48l-.22-4.95c-.06-1.22-1.06-2.19-2.29-2.19h-4.92c-1.27,0-2.29,1.03-2.29,2.29v62.2c0,1.27,1.03,2.29,2.29,2.29h5.7c1.27,0,2.29-1.03,2.29-2.29v-41.91c2.21-5.25,4.68-8.95,7.34-11.02,2.64-2.05,5.11-3.08,7.34-3.08,1.44,0,2.23.09,2.65.16.65.12,1.37.29,2.14.52.22.07.44.1.66.1.97,0,1.88-.63,2.18-1.6l1.56-4.92c.34-1.07-.15-2.24-1.16-2.74-1.22-.61-2.46-1.03-3.67-1.24-1.13-.2-2.33-.29-3.57-.29h0v-.03Z"/>
  </g>
  <g>
    <path d="M727.04,99.29c-5.11,0-9.95-1.34-14.39-3.98-4.44-2.65-8.03-6.55-10.67-11.6-2.62-5.02-3.95-11.11-3.95-18.09s1.33-13.21,3.95-18.28c2.63-5.09,6.22-9.02,10.67-11.67,4.44-2.64,9.28-3.98,14.39-3.98s10.06,1.34,14.46,3.99c4.4,2.65,7.98,6.57,10.66,11.66,2.67,5.07,4.02,11.22,4.02,18.29s-1.35,13.07-4.02,18.1c-2.68,5.04-6.26,8.94-10.66,11.59s-9.26,3.99-14.46,3.99v-.02ZM727.04,39.03c-3.88,0-7.41,1.11-10.48,3.29-3.1,2.2-5.61,5.34-7.46,9.33-1.86,4.02-2.81,8.71-2.81,13.96s.94,9.93,2.81,13.9c1.85,3.94,4.36,7.04,7.46,9.2,3.07,2.14,6.6,3.23,10.49,3.23s7.57-1.09,10.69-3.23c3.14-2.16,5.64-5.25,7.45-9.19,1.82-3.98,2.75-8.66,2.75-13.91s-.93-9.95-2.75-13.97c-1.81-3.98-4.31-7.12-7.45-9.32-3.11-2.18-6.71-3.29-10.68-3.29h-.02Z"/>
    <path d="M727.04,32.83c5.01,0,9.63,1.28,13.86,3.82,4.23,2.55,7.64,6.28,10.24,11.21s3.89,10.84,3.89,17.75-1.29,12.68-3.89,17.56c-2.59,4.88-6.01,8.6-10.24,11.14-4.23,2.55-8.86,3.82-13.86,3.82s-9.52-1.27-13.8-3.82-7.69-6.26-10.24-11.14-3.82-10.73-3.82-17.56,1.27-12.83,3.82-17.75c2.55-4.92,5.96-8.66,10.24-11.21s8.88-3.82,13.8-3.82M727.04,93.09c4.23,0,8.01-1.14,11.34-3.43,3.32-2.29,5.94-5.51,7.84-9.65,1.9-4.15,2.85-8.94,2.85-14.38s-.95-10.26-2.85-14.45-4.51-7.45-7.84-9.78-7.11-3.5-11.34-3.5-7.86,1.17-11.14,3.5-5.9,5.59-7.84,9.78-2.92,9-2.92,14.45.97,10.24,2.92,14.38c1.94,4.15,4.55,7.36,7.84,9.65,3.28,2.29,7,3.43,11.14,3.43M727.04,30.54c-5.32,0-10.35,1.39-14.97,4.15-4.63,2.76-8.37,6.84-11.1,12.12-2.71,5.23-4.08,11.56-4.08,18.8s1.37,13.43,4.08,18.62c2.73,5.24,6.47,9.29,11.1,12.05,4.62,2.75,9.65,4.14,14.97,4.14s10.47-1.4,15.05-4.15c4.57-2.75,8.3-6.8,11.08-12.03,2.76-5.19,4.15-11.46,4.15-18.63s-1.4-13.59-4.15-18.82c-2.78-5.27-6.5-9.35-11.08-12.1-4.58-2.76-9.64-4.15-15.05-4.15h0ZM727.04,90.8c-3.7,0-6.92-.99-9.83-3.02-2.93-2.04-5.31-4.99-7.07-8.75-1.79-3.82-2.7-8.33-2.7-13.41s.91-9.62,2.7-13.48c1.77-3.81,4.15-6.79,7.09-8.88,2.91-2.07,6.12-3.08,9.82-3.08s7.06,1.01,10.02,3.08c2.97,2.08,5.35,5.06,7.07,8.85,1.76,3.87,2.65,8.42,2.65,13.5s-.89,9.6-2.64,13.43c-1.72,3.74-4.09,6.68-7.05,8.72-2.96,2.04-6.25,3.03-10.04,3.03h-.02Z"/>
  </g>
  <g>
    <path class="st0" d="M108.69,44.5c.29,31.33-23.3,56.27-49.15,67.71C8.31,134.86-1,49.93,29.61,18.8c26.68-27.13,78.71-14.52,79.08,25.7h0Z"/>
    <path class="st1" d="M71.17,111.72c-31.11-1.51-54.62-26.05-64.6-52.03C-13.2,8.21,71.61,3.96,100.89,35.73c25.51,27.68,10.23,77.93-29.72,75.99h0Z"/>
  </g>
</svg>