<svg width="100%" viewBox="0 0 680 680" xmlns="http://www.w3.org/2000/svg">

<!-- Connection lines between clusters -->
<line x1="280" y1="260" x2="420" y2="180" stroke="rgba(155,81,224,0.06)" stroke-width="0.8"/>
<line x1="320" y1="320" x2="460" y2="380" stroke="rgba(155,81,224,0.06)" stroke-width="0.8"/>
<line x1="250" y1="350" x2="180" y2="460" stroke="rgba(155,81,224,0.06)" stroke-width="0.8"/>
<line x1="380" y1="300" x2="500" y2="280" stroke="rgba(155,81,224,0.06)" stroke-width="0.8"/>
<line x1="300" y1="280" x2="200" y2="200" stroke="rgba(155,81,224,0.06)" stroke-width="0.8"/>
<line x1="340" y1="340" x2="400" y2="480" stroke="rgba(155,81,224,0.06)" stroke-width="0.8"/>
<line x1="260" y1="300" x2="140" y2="340" stroke="rgba(155,81,224,0.06)" stroke-width="0.8"/>
<line x1="350" y1="260" x2="520" y2="160" stroke="rgba(155,81,224,0.06)" stroke-width="0.8"/>
<line x1="280" y1="340" x2="220" y2="500" stroke="rgba(155,81,224,0.06)" stroke-width="0.8"/>
<line x1="360" y1="310" x2="540" y2="400" stroke="rgba(155,81,224,0.06)" stroke-width="0.8"/>

<!-- Stronger connections within/between nearby clusters -->
<line x1="300" y1="290" x2="340" y2="310" stroke="rgba(155,81,224,0.10)" stroke-width="1"/>
<line x1="280" y1="270" x2="320" y2="250" stroke="rgba(155,81,224,0.10)" stroke-width="1"/>
<line x1="310" y1="310" x2="280" y2="330" stroke="rgba(155,81,224,0.10)" stroke-width="1"/>
<line x1="350" y1="280" x2="380" y2="300" stroke="rgba(155,81,224,0.10)" stroke-width="1"/>

<!-- Top-right cluster connections -->
<line x1="480" y1="140" x2="520" y2="160" stroke="rgba(255,66,121,0.10)" stroke-width="1"/>
<line x1="440" y1="170" x2="480" y2="140" stroke="rgba(255,66,121,0.10)" stroke-width="1"/>
<line x1="520" y1="160" x2="540" y2="200" stroke="rgba(255,66,121,0.10)" stroke-width="1"/>
<line x1="460" y1="120" x2="500" y2="100" stroke="rgba(255,66,121,0.08)" stroke-width="0.8"/>
<line x1="500" y1="100" x2="550" y2="130" stroke="rgba(255,66,121,0.08)" stroke-width="0.8"/>

<!-- Bottom-left cluster connections -->
<line x1="160" y1="460" x2="200" y2="480" stroke="rgba(255,162,0,0.10)" stroke-width="1"/>
<line x1="200" y1="480" x2="240" y2="500" stroke="rgba(255,162,0,0.10)" stroke-width="1"/>
<line x1="140" y1="500" x2="180" y2="520" stroke="rgba(255,162,0,0.08)" stroke-width="0.8"/>
<line x1="180" y1="520" x2="220" y2="510" stroke="rgba(255,162,0,0.08)" stroke-width="0.8"/>

<!-- Bottom-right cluster connections -->
<line x1="460" y1="420" x2="500" y2="440" stroke="rgba(216,90,138,0.10)" stroke-width="1"/>
<line x1="500" y1="440" x2="540" y2="420" stroke="rgba(216,90,138,0.10)" stroke-width="1"/>
<line x1="420" y1="470" x2="460" y2="490" stroke="rgba(216,90,138,0.08)" stroke-width="0.8"/>
<line x1="460" y1="490" x2="510" y2="480" stroke="rgba(216,90,138,0.08)" stroke-width="0.8"/>

<!-- Left cluster connections -->
<line x1="120" y1="300" x2="160" y2="330" stroke="rgba(128,56,143,0.10)" stroke-width="1"/>
<line x1="100" y1="340" x2="140" y2="350" stroke="rgba(128,56,143,0.08)" stroke-width="0.8"/>
<line x1="140" y1="350" x2="160" y2="330" stroke="rgba(128,56,143,0.08)" stroke-width="0.8"/>

<!-- Top-left cluster connections -->
<line x1="180" y1="160" x2="220" y2="180" stroke="rgba(155,81,224,0.10)" stroke-width="1"/>
<line x1="160" y1="200" x2="200" y2="210" stroke="rgba(155,81,224,0.08)" stroke-width="0.8"/>
<line x1="200" y1="210" x2="220" y2="180" stroke="rgba(155,81,224,0.08)" stroke-width="0.8"/>

<!-- Far periphery connections -->
<line x1="580" y1="300" x2="540" y2="400" stroke="rgba(155,81,224,0.04)" stroke-width="0.6"/>
<line x1="100" y1="200" x2="160" y2="200" stroke="rgba(128,56,143,0.04)" stroke-width="0.6"/>
<line x1="340" y1="580" x2="400" y2="520" stroke="rgba(255,162,0,0.04)" stroke-width="0.6"/>
<line x1="580" y1="300" x2="550" y2="130" stroke="rgba(255,66,121,0.04)" stroke-width="0.6"/>

<!-- === NODES === -->

<!-- Central cluster - largest, gradient core colours -->
<circle cx="300" cy="290" r="18" fill="#9B51E0" opacity="0.85"/>
<circle cx="340" cy="310" r="14" fill="#B44BD0" opacity="0.8"/>
<circle cx="280" cy="270" r="12" fill="#80388F" opacity="0.75"/>
<circle cx="320" cy="260" r="10" fill="#C74BAF" opacity="0.7"/>
<circle cx="350" cy="280" r="8" fill="#9B51E0" opacity="0.65"/>
<circle cx="270" cy="310" r="9" fill="#80388F" opacity="0.6"/>
<circle cx="310" cy="330" r="7" fill="#B44BD0" opacity="0.55"/>
<circle cx="360" cy="305" r="6" fill="#9B51E0" opacity="0.5"/>
<circle cx="290" cy="250" r="5" fill="#80388F" opacity="0.5"/>
<circle cx="380" cy="295" r="5" fill="#C74BAF" opacity="0.45"/>

<!-- Top-right cluster - coral/pink tones -->
<circle cx="480" cy="140" r="14" fill="#FF4279" opacity="0.75"/>
<circle cx="520" cy="160" r="11" fill="#E8396D" opacity="0.65"/>
<circle cx="440" cy="170" r="9" fill="#FF4279" opacity="0.55"/>
<circle cx="540" cy="200" r="7" fill="#D93462" opacity="0.5"/>
<circle cx="460" cy="120" r="6" fill="#FF4279" opacity="0.45"/>
<circle cx="500" cy="100" r="5" fill="#E8396D" opacity="0.4"/>
<circle cx="550" cy="130" r="4" fill="#FF4279" opacity="0.35"/>

<!-- Bottom-left cluster - amber/warm tones -->
<circle cx="180" cy="470" r="13" fill="#FFA200" opacity="0.75"/>
<circle cx="220" cy="500" r="10" fill="#E89200" opacity="0.65"/>
<circle cx="150" cy="500" r="8" fill="#FFA200" opacity="0.55"/>
<circle cx="200" cy="530" r="6" fill="#E89200" opacity="0.45"/>
<circle cx="240" cy="520" r="5" fill="#FFA200" opacity="0.4"/>
<circle cx="130" cy="480" r="4" fill="#E89200" opacity="0.35"/>

<!-- Bottom-right cluster - mixed gradient -->
<circle cx="490" cy="430" r="12" fill="#D85A8A" opacity="0.7"/>
<circle cx="530" cy="410" r="9" fill="#FF4279" opacity="0.6"/>
<circle cx="450" cy="470" r="8" fill="#E87040" opacity="0.5"/>
<circle cx="480" cy="490" r="6" fill="#FFA200" opacity="0.45"/>
<circle cx="550" cy="440" r="5" fill="#D85A8A" opacity="0.4"/>

<!-- Left cluster - deep purple -->
<circle cx="130" cy="320" r="10" fill="#80388F" opacity="0.65"/>
<circle cx="160" cy="340" r="8" fill="#6B2D78" opacity="0.55"/>
<circle cx="100" cy="350" r="6" fill="#80388F" opacity="0.45"/>
<circle cx="150" cy="300" r="5" fill="#6B2D78" opacity="0.4"/>

<!-- Top-left cluster - purple transitioning -->
<circle cx="200" cy="180" r="10" fill="#9B51E0" opacity="0.6"/>
<circle cx="230" cy="200" r="7" fill="#B44BD0" opacity="0.5"/>
<circle cx="170" cy="210" r="6" fill="#80388F" opacity="0.45"/>
<circle cx="190" cy="155" r="5" fill="#9B51E0" opacity="0.4"/>

<!-- Scattered peripheral nodes -->
<circle cx="580" cy="300" r="4" fill="#FF4279" opacity="0.25"/>
<circle cx="100" cy="200" r="3" fill="#80388F" opacity="0.25"/>
<circle cx="600" cy="220" r="3" fill="#D85A8A" opacity="0.2"/>
<circle cx="80" cy="420" r="3" fill="#6B2D78" opacity="0.2"/>
<circle cx="400" cy="560" r="3" fill="#FFA200" opacity="0.2"/>
<circle cx="560" cy="520" r="3" fill="#E87040" opacity="0.2"/>
<circle cx="340" cy="590" r="3" fill="#FFA200" opacity="0.18"/>
<circle cx="120" cy="150" r="2.5" fill="#80388F" opacity="0.18"/>
<circle cx="600" cy="400" r="2.5" fill="#FF4279" opacity="0.18"/>
<circle cx="420" cy="80" r="2.5" fill="#E8396D" opacity="0.18"/>
<circle cx="80" cy="560" r="2" fill="#FFA200" opacity="0.15"/>
<circle cx="620" cy="500" r="2" fill="#D85A8A" opacity="0.15"/>
<circle cx="500" cy="570" r="2" fill="#E87040" opacity="0.15"/>
<circle cx="60" cy="280" r="2" fill="#80388F" opacity="0.15"/>
<circle cx="620" cy="140" r="2" fill="#FF4279" opacity="0.12"/>
<circle cx="300" cy="620" r="2" fill="#FFA200" opacity="0.12"/>

<!-- Tiny dots - fine texture -->
<circle cx="400" cy="230" r="1.5" fill="#C74BAF" opacity="0.2"/>
<circle cx="240" cy="400" r="1.5" fill="#80388F" opacity="0.18"/>
<circle cx="460" cy="340" r="1.5" fill="#FF4279" opacity="0.18"/>
<circle cx="350" cy="450" r="1.5" fill="#E87040" opacity="0.15"/>
<circle cx="200" cy="350" r="1.5" fill="#6B2D78" opacity="0.15"/>
<circle cx="500" cy="260" r="1.5" fill="#D85A8A" opacity="0.15"/>
<circle cx="380" cy="150" r="1.5" fill="#9B51E0" opacity="0.15"/>
<circle cx="260" cy="560" r="1.5" fill="#FFA200" opacity="0.12"/>
<circle cx="560" cy="340" r="1.5" fill="#FF4279" opacity="0.12"/>

</svg>